<svg width="391" height="252" viewBox="0 0 391 252" fill="none" xmlns="http://www.w3.org/2000/svg">
<path d="M278.236 251.745C278.481 253.338 277.378 254.686 275.663 254.686H209.874C208.281 254.686 207.056 253.338 207.301 251.745L216.244 191.714C216.489 190.121 218.082 188.774 219.675 188.774H265.739C267.332 188.774 268.925 190.121 269.17 191.714L278.236 251.745Z" fill="#D44125"/>
<path d="M333.489 203.353C333.489 207.396 330.181 210.826 326.015 210.826H159.643C155.6 210.826 152.17 207.518 152.17 203.353V95.9091C152.17 91.8661 155.478 88.4358 159.643 88.4358H326.015C330.058 88.4358 333.489 91.7436 333.489 95.9091V203.353Z" fill="#BC361C"/>
<path d="M323.933 183.261C323.933 184.853 322.586 186.201 320.993 186.201H164.667C163.074 186.201 161.727 184.853 161.727 183.261V101.055C161.727 99.4619 163.074 98.1143 164.667 98.1143H320.993C322.586 98.1143 323.933 99.4619 323.933 101.055V183.261Z" fill="#E9EBED"/>
<path d="M242.83 204.21C245.942 204.21 248.466 201.687 248.466 198.575C248.466 195.462 245.942 192.939 242.83 192.939C239.717 192.939 237.194 195.462 237.194 198.575C237.194 201.687 239.717 204.21 242.83 204.21Z" fill="#EF632F"/>
<path d="M289.996 171.254C289.996 173.705 288.036 175.787 285.463 175.787H199.949C197.499 175.787 195.416 173.827 195.416 171.254V113.061C195.416 110.611 197.376 108.528 199.949 108.528H285.463C287.913 108.528 289.996 110.488 289.996 113.061V171.254Z" fill="white"/>
<path d="M289.996 115.879V111.836C289.996 109.998 288.526 108.528 286.689 108.528H198.847C197.009 108.528 195.539 109.998 195.539 111.836V115.879H289.996Z" fill="#D7DADF"/>
<path d="M201.052 113.918C201.931 113.918 202.644 113.205 202.644 112.326C202.644 111.446 201.931 110.733 201.052 110.733C200.172 110.733 199.459 111.446 199.459 112.326C199.459 113.205 200.172 113.918 201.052 113.918Z" fill="#D0011B"/>
<path d="M206.075 113.796C206.955 113.796 207.668 113.083 207.668 112.203C207.668 111.324 206.955 110.611 206.075 110.611C205.195 110.611 204.482 111.324 204.482 112.203C204.482 113.083 205.195 113.796 206.075 113.796Z" fill="#F5BC41"/>
<path d="M211.343 113.796C212.222 113.796 212.935 113.083 212.935 112.203C212.935 111.324 212.222 110.611 211.343 110.611C210.463 110.611 209.75 111.324 209.75 112.203C209.75 113.083 210.463 113.796 211.343 113.796Z" fill="#26AA99"/>
<path d="M136.509 62.5019C136.04 69.5404 132.474 75.4527 127.5 80.4266C122.526 85.3066 117.364 85.7758 111.452 88.7789C107.041 91.1251 104.883 95.6297 104.695 100.322C104.507 105.014 107.792 109.894 106.009 114.493C104.883 117.308 102.161 118.998 100.003 121.062C92.4013 128.007 90.4305 140.113 95.4044 148.935C100.378 157.756 111.921 162.542 121.963 160.009L169.543 96.8497L156.217 56.7772C156.029 56.7772 136.509 62.5019 136.509 62.5019Z" fill="#442119"/>
<path d="M186.623 55.7449C188.5 61.0942 191.128 64.5665 196.664 66.6311C200.231 67.945 204.172 68.9773 206.988 71.605C211.586 75.9219 211.774 83.0543 214.589 88.7789C216.466 92.5328 219.563 95.7235 223.317 97.6005C236.643 104.264 254.286 108.205 249.312 128.194C246.872 138.048 237.019 145.744 226.602 145.838L164.006 97.5066L166.258 55.3695L186.623 55.7449Z" fill="#442119"/>
<path d="M176.582 111.771H156.123L158.563 90.4681H174.142L176.582 111.771Z" fill="#F1C3B8"/>
<path d="M187.561 55.651C190.657 52.6479 195.256 54.6187 195.913 58.9357C196.57 63.2526 193.473 67.1003 189.25 67.6634" fill="#E4AFA5"/>
<path d="M138.856 63.9095C135.102 61.7511 131.161 64.9419 131.724 69.2588C132.287 73.4819 136.229 76.485 140.452 75.9219" fill="#E4AFA5"/>
<path fill-rule="evenodd" clip-rule="evenodd" d="M137.021 86.2281C137.629 87.4307 138.391 87.9483 139.059 87.9919C139.727 88.0355 140.55 87.6213 141.308 86.5078C142.051 85.4171 142.606 83.8108 142.727 81.9478C142.849 80.0847 142.508 78.42 141.913 77.242C141.306 76.0393 140.543 75.5217 139.875 75.4782C139.207 75.4346 138.384 75.8487 137.626 76.9622C136.883 78.0529 136.329 79.6593 136.207 81.5223C136.085 83.3853 136.426 85.0501 137.021 86.2281ZM135.147 87.1748C134.355 85.6073 133.97 83.5568 134.111 81.3856C134.253 79.2143 134.901 77.2313 135.89 75.7799C136.863 74.3514 138.301 73.2709 140.012 73.3826C141.723 73.4942 143.008 74.7524 143.787 76.2952C144.579 77.8628 144.964 79.9132 144.823 82.0845C144.681 84.2557 144.033 86.2388 143.044 87.6901C142.071 89.1186 140.633 90.1991 138.922 90.0875C137.211 89.9758 135.926 88.7177 135.147 87.1748Z" fill="#F5BC41"/>
<path fill-rule="evenodd" clip-rule="evenodd" d="M189.325 69.5713C189.248 70.8887 189.597 72.5516 190.449 74.2127C191.301 75.8737 192.449 77.1272 193.564 77.8325C194.703 78.5526 195.622 78.6053 196.218 78.2998C196.813 77.9942 197.307 77.2162 197.386 75.8713C197.464 74.5539 197.114 72.891 196.262 71.2299C195.41 69.5689 194.263 68.3154 193.147 67.6101C192.009 66.89 191.089 66.8373 190.493 67.1429C189.898 67.4484 189.404 68.2264 189.325 69.5713ZM187.229 69.448C187.33 67.7226 188.009 66.0573 189.535 65.2745C191.06 64.4917 192.809 64.9115 194.27 65.8353C195.754 66.7738 197.137 68.3355 198.131 70.2713C199.124 72.2071 199.586 74.2416 199.483 75.9946C199.381 77.72 198.702 79.3853 197.177 80.1681C195.651 80.951 193.902 80.5311 192.441 79.6073C190.957 78.6688 189.574 77.1071 188.581 75.1713C187.587 73.2355 187.126 71.201 187.229 69.448Z" fill="#F5BC41"/>
<path d="M189.72 58.5603C192.254 77.1419 182.494 93.9405 168.042 95.8174C153.683 97.7882 139.794 84.1804 137.26 65.5988L136.885 62.6895C134.351 44.1079 144.111 27.3094 158.563 25.4324C172.922 23.4617 186.811 37.0694 189.345 55.651L189.72 58.5603Z" fill="#F1C3B8"/>
<path d="M158.283 41.4805C172.547 61.0944 189.346 56.2144 189.346 56.2144C189.627 25.6204 163.538 20.8342 154.435 22.2419C155.092 21.6788 155.467 21.4911 155.749 21.2096C159.503 17.925 161.098 13.8896 159.784 9.00955C158.564 4.41106 155.373 1.68951 150.869 0.563349C149.743 0.281809 148.616 0.187963 147.49 0.0941162L144.018 0.563349C143.83 1.12643 143.267 1.03258 142.892 1.12643C137.167 3.47259 134.07 8.9157 135.103 14.6403C136.135 20.2711 141.015 24.1189 147.115 24.3065C147.396 24.3065 147.678 24.3065 147.772 24.6819C147.396 24.8696 146.927 25.1512 146.552 25.3389C140.921 28.4358 136.698 32.8466 133.976 38.6651C129.659 48.0497 130.222 57.3406 135.103 66.4437C135.478 66.3498 152.183 65.5991 158.283 41.4805ZM137.355 16.6111C137.355 16.705 137.261 16.8927 137.167 16.9865L137.355 16.6111Z" fill="#442119"/>
<path d="M147.677 25.9017C154.83 25.9017 160.628 20.1034 160.628 12.9508C160.628 5.79829 154.83 0 147.677 0C140.525 0 134.727 5.79829 134.727 12.9508C134.727 20.1034 140.525 25.9017 147.677 25.9017Z" fill="#442119"/>
<path d="M152.589 69.872C153.873 69.699 154.684 67.8516 154.4 65.7457C154.116 63.6398 152.845 62.0729 151.561 62.2459C150.277 62.4189 149.466 64.2663 149.75 66.3722C150.034 68.4781 151.305 70.045 152.589 69.872Z" fill="#2A130F"/>
<path d="M173.134 67.0556C174.418 66.8826 175.229 65.0352 174.945 62.9293C174.661 60.8234 173.39 59.2565 172.106 59.4295C170.822 59.6024 170.011 61.4498 170.295 63.5558C170.579 65.6617 171.85 67.2286 173.134 67.0556Z" fill="#2A130F"/>
<path fill-rule="evenodd" clip-rule="evenodd" d="M161.298 63.1185C161.631 62.9185 162.064 63.0266 162.264 63.3599L165.079 68.0522C165.438 68.65 165.571 69.3246 165.384 69.9441C165.191 70.5806 164.691 71.0459 164.021 71.247C163.563 71.3842 163.151 71.5218 162.852 71.6251C162.703 71.6767 162.583 71.7195 162.501 71.7493C162.46 71.7642 162.428 71.7758 162.407 71.7836L162.383 71.7924L162.377 71.7949C162.376 71.7949 162.377 71.7949 162.377 71.7949M162.377 71.7949C162.013 71.9314 161.607 71.747 161.47 71.383C161.334 71.0191 161.518 70.6134 161.882 70.4769L161.883 70.4765L161.892 70.473L161.92 70.4629C161.943 70.4542 161.978 70.4416 162.022 70.4257C162.109 70.3939 162.236 70.3488 162.392 70.2948C162.703 70.187 163.135 70.043 163.616 69.8987C163.884 69.8183 163.995 69.6735 164.036 69.5358C164.083 69.381 164.076 69.1171 163.872 68.7765L161.056 64.0842C160.856 63.7508 160.965 63.3185 161.298 63.1185" fill="#E09485"/>
<path fill-rule="evenodd" clip-rule="evenodd" d="M153.986 59.8251C151.979 58.6541 149.77 58.8832 147.974 59.4221C147.601 59.5338 147.209 59.3225 147.097 58.9502C146.986 58.5779 147.197 58.1855 147.569 58.0738C149.527 57.4865 152.198 57.1525 154.695 58.6092C155.031 58.8051 155.145 59.236 154.949 59.5718C154.753 59.9076 154.322 60.021 153.986 59.8251Z" fill="#2A1313"/>
<path fill-rule="evenodd" clip-rule="evenodd" d="M174.601 55.878C172.358 55.5457 170.398 56.6196 168.954 57.7927C168.653 58.0378 168.209 57.9919 167.964 57.6902C167.719 57.3885 167.765 56.9452 168.067 56.7001C169.626 55.4331 171.983 54.0671 174.808 54.4855C175.192 54.5425 175.458 54.9004 175.401 55.2849C175.344 55.6694 174.986 55.935 174.601 55.878Z" fill="#2A1313"/>
<path d="M170.011 74.608C170.293 76.9542 167.853 79.3004 164.568 79.6758C161.284 80.0511 158.281 78.5496 157.999 76.2034L170.011 74.608Z" fill="white"/>
<path d="M135.102 235.555H197.04L199.856 192.386H133.225L135.102 235.555Z" fill="#F1C3B8"/>
<path d="M151.15 112.616C151.15 114.211 152.464 115.431 153.966 115.431H179.304C180.806 115.431 182.12 114.211 182.12 112.616V105.108C182.12 103.513 180.806 102.293 179.304 102.293H153.966C152.464 102.293 151.15 103.513 151.15 105.108V112.616Z" fill="#F5BC41"/>
<path d="M211.212 117.027C201.17 115.525 182.119 113.836 182.119 113.836H146.645C146.645 113.836 138.387 115.056 128.345 116.557C118.303 118.059 112.297 128.382 115.019 139.456C117.74 150.53 119.993 159.633 119.993 159.633L122.339 169.018L131.723 208.433H166.447H166.916H201.639L211.024 169.018L213.37 159.633C213.37 159.633 215.622 150.53 218.344 139.456C220.972 128.288 221.253 118.528 211.212 117.027Z" fill="#F5BC41"/>
<path d="M199.105 233.678L218.25 272.624C222.848 281.915 226.133 297.869 225.758 308.192C225.758 308.192 239.272 471.955 221.722 588.324H181.181L166.071 314.011V233.584H199.105V233.678Z" fill="#113366"/>
<path d="M133.883 233.678L114.738 272.624C110.14 281.915 106.855 297.869 107.23 308.192C107.23 308.192 93.904 452.435 111.266 588.324H151.807L166.917 314.011V233.584H133.883V233.678Z" fill="#113366"/>
<path d="M187.093 242.124C191.757 242.124 195.539 238.343 195.539 233.678C195.539 229.013 191.757 225.232 187.093 225.232C182.428 225.232 178.646 229.013 178.646 233.678C178.646 238.343 182.428 242.124 187.093 242.124Z" fill="#113366"/>
<path d="M173.015 242.124C177.679 242.124 181.461 238.343 181.461 233.678C181.461 229.013 177.679 225.232 173.015 225.232C168.35 225.232 164.568 229.013 164.568 233.678C164.568 238.343 168.35 242.124 173.015 242.124Z" fill="#113366"/>
<path d="M158.938 242.124C163.603 242.124 167.385 238.343 167.385 233.678C167.385 229.013 163.603 225.232 158.938 225.232C154.274 225.232 150.492 229.013 150.492 233.678C150.492 238.343 154.274 242.124 158.938 242.124Z" fill="#113366"/>
<path d="M144.862 242.124C149.527 242.124 153.308 238.343 153.308 233.678C153.308 229.013 149.527 225.232 144.862 225.232C140.198 225.232 136.416 229.013 136.416 233.678C136.416 238.343 140.198 242.124 144.862 242.124Z" fill="#113366"/>
<path d="M201.169 225.326V242.218C196.477 242.218 192.723 238.464 192.723 233.772C192.817 229.08 196.57 225.326 201.169 225.326Z" fill="#113366"/>
<path d="M130.69 225.326C135.383 225.326 139.137 229.08 139.137 233.772C139.137 238.465 135.383 242.218 130.69 242.218V225.326Z" fill="#113366"/>
<path d="M169.074 132.324L137.73 178.59L114.831 164.701L151.807 120.124L169.074 132.324Z" fill="#E4AFA5"/>
<path d="M185.404 108.768C188.125 112.334 183.809 117.121 183.809 117.121C182.401 118.904 178.459 125.942 168.512 132.887L151.619 120.968C151.619 120.968 154.247 112.334 157.25 108.768C160.91 104.451 165.133 99.4775 165.602 99.0082C166.447 98.2575 177.145 81.8343 177.99 80.802L183.245 84.0866L173.016 100.885" fill="#E4AFA5"/>
<path d="M178.083 104.451C178.083 104.451 179.678 100.979 176.488 99.5713C173.203 98.1636 170.106 103.607 170.106 103.607C170.106 103.607 168.135 106.61 169.731 108.111C171.326 109.613 173.672 107.173 173.672 107.173" fill="#E4AFA5"/>
<path d="M182.683 107.548C182.683 107.548 184.278 104.076 181.087 102.668C177.803 101.261 174.706 106.704 174.706 106.704C174.706 106.704 172.735 109.707 174.33 111.208C175.926 112.71 179.21 110.551 179.21 110.551" fill="#E4AFA5"/>
<path d="M183.058 113.555C183.058 113.555 179.773 115.713 178.178 114.211C176.583 112.71 178.553 109.707 178.553 109.707C179.773 107.924 182.12 105.484 184.56 105.765C187.093 106.141 188.313 109.331 187.375 111.49C185.967 114.775 183.903 117.121 183.903 117.121" fill="#E4AFA5"/>
<path d="M180.525 85.682C182.235 85.682 183.622 84.2955 183.622 82.5851C183.622 80.8747 182.235 79.4882 180.525 79.4882C178.814 79.4882 177.428 80.8747 177.428 82.5851C177.428 84.2955 178.814 85.682 180.525 85.682Z" fill="#E4AFA5"/>
<path d="M158.844 100.885C160.554 100.885 161.941 99.4986 161.941 97.7882C161.941 96.0778 160.554 94.6913 158.844 94.6913C157.134 94.6913 155.747 96.0778 155.747 97.7882C155.747 99.4986 157.134 100.885 158.844 100.885Z" fill="#E4AFA5"/>
<path d="M155.842 98.4451L161.379 96.0051L165.696 102.293L159.783 107.454L155.842 98.4451Z" fill="#E4AFA5"/>
<path d="M156.968 100.979C156.968 100.979 158.188 105.015 157.155 109.331L163.631 104.076L156.968 100.979Z" fill="#E4AFA5"/>
<path d="M133.227 193.324L100.943 178.966L114.457 129.039L151.151 137.392L133.227 193.324Z" fill="#F5BC41"/>
<path d="M123.186 186.473L123.467 208.433L164.384 219.132L168.513 191.353L123.186 186.473Z" fill="#F1C3B8"/>
<path d="M106.104 192.386C106.104 192.386 101.693 208.527 119.055 208.34C136.417 208.152 126 193.324 126 193.324L106.104 192.386Z" fill="#F1C3B8"/>
<path d="M195.165 181.687L116.709 172.772L114.738 217.255L193.663 219.883" fill="#F5BC41"/>
<path d="M132.289 154.002C142.759 154.002 151.246 145.515 151.246 135.045C151.246 124.576 142.759 116.088 132.289 116.088C121.819 116.088 113.332 124.576 113.332 135.045C113.332 145.515 121.819 154.002 132.289 154.002Z" fill="#F5BC41"/>
<path d="M210.557 205.806L174.238 195.67L191.037 130.541L227.919 137.673L210.557 205.806Z" fill="#F5BC41"/>
<path d="M209.054 154.941C219.523 154.941 228.011 146.454 228.011 135.984C228.011 125.514 219.523 117.027 209.054 117.027C198.584 117.027 190.097 125.514 190.097 135.984C190.097 146.454 198.584 154.941 209.054 154.941Z" fill="#F5BC41"/>
<path d="M192.35 220.258C202.819 220.258 211.307 211.771 211.307 201.301C211.307 190.831 202.819 182.344 192.35 182.344C181.88 182.344 173.393 190.831 173.393 201.301C173.393 211.771 181.88 220.258 192.35 220.258Z" fill="#F5BC41"/>
<path fill-rule="evenodd" clip-rule="evenodd" d="M190.461 132.581C190.838 132.677 191.065 133.06 190.968 133.437L178.898 180.579L116.631 173.471C116.245 173.427 115.967 173.078 116.011 172.692C116.056 172.306 116.404 172.028 116.791 172.072L177.838 179.041L189.605 133.088C189.701 132.711 190.085 132.484 190.461 132.581Z" fill="#E5A300"/>
<path d="M133.226 196.797L177.991 138.049L145.145 114.868L104.228 172.49" fill="#F5BC41"/>
<path d="M119.149 203.084C129.619 203.084 138.106 194.597 138.106 184.127C138.106 173.658 129.619 165.17 119.149 165.17C108.68 165.17 100.192 173.658 100.192 184.127C100.192 194.597 108.68 203.084 119.149 203.084Z" fill="#F5BC41"/>
<path fill-rule="evenodd" clip-rule="evenodd" d="M144.478 114.367C144.702 114.051 145.14 113.976 145.457 114.199L150.524 117.765C150.842 117.989 150.919 118.428 150.695 118.746C150.471 119.064 150.032 119.14 149.714 118.916L145.22 115.753L104.708 172.804C104.483 173.121 104.044 173.195 103.727 172.97C103.41 172.745 103.336 172.306 103.561 171.989L144.478 114.367Z" fill="#E5A300"/>
<path fill-rule="evenodd" clip-rule="evenodd" d="M170.844 132.954C171.066 132.635 171.505 132.556 171.824 132.778L178.299 137.283C178.457 137.393 178.563 137.562 178.593 137.751C178.622 137.941 178.573 138.135 178.457 138.287L135.045 195.295C134.847 195.68 134.632 196.003 134.319 196.323L133.688 197.135L133.677 197.148C132.776 198.249 131.687 199.135 130.552 199.987L130.542 199.995L130.542 199.994C125.96 203.309 120.411 204.278 115.265 203.307C114.883 203.235 114.632 202.866 114.704 202.484C114.776 202.102 115.144 201.851 115.526 201.923C120.325 202.829 125.473 201.922 129.712 198.857C130.824 198.023 131.796 197.223 132.582 196.263L133.234 195.426C133.252 195.403 133.271 195.381 133.292 195.36C133.508 195.144 133.654 194.93 133.817 194.605C133.836 194.565 133.86 194.528 133.886 194.493L176.892 138.019L171.02 133.934C170.701 133.712 170.622 133.273 170.844 132.954Z" fill="#E5A300"/>
<path d="M81.5975 19.2036C84.2077 17.7121 87.1907 16.9663 90.1738 16.9663C91.8518 16.9663 93.3433 17.1527 94.8349 17.5256C96.3264 17.8985 97.6315 18.4578 98.9366 19.2036C101.36 20.6951 103.038 22.5596 104.343 24.9833C105.462 27.4071 106.208 29.8308 106.208 32.2546C106.208 34.8648 105.835 37.2885 104.903 39.7123C103.971 42.136 102.479 44.1869 100.615 45.8649C98.9366 47.3564 97.6315 48.6615 96.8857 50.153C96.14 51.6446 95.3942 52.7632 95.2078 53.8819C94.8349 55.0005 94.6484 56.3056 94.8349 57.7971H84.3941C84.3941 57.6107 84.3941 57.0514 84.3941 55.9327C84.3941 54.8141 84.767 53.509 85.1399 51.831C85.6992 50.153 86.445 48.2886 87.5636 46.2377C88.6823 44.1869 90.3603 42.136 92.4111 39.8987C93.7162 38.5936 94.6485 37.475 95.2078 36.1699C95.7671 35.0512 96.14 33.9326 96.14 32.8139C96.14 31.8817 95.9535 30.9495 95.5806 30.0173C95.2077 29.2715 94.462 28.5257 93.7162 27.9664C92.5976 27.2206 91.2925 26.8477 89.9874 26.8477C88.3094 26.8477 87.0043 27.4071 85.6992 28.7122C84.3941 30.0173 83.8348 31.8817 83.8348 34.4919L73.5805 34.6783C73.394 32.8139 73.394 31.1359 73.7669 29.4579C74.1398 27.78 74.6991 26.2884 75.4449 24.9833C76.1907 23.6782 77.1229 22.3731 78.2415 21.2545C79.3602 20.6952 80.4788 19.7629 81.5975 19.2036ZM83.4619 68.9837C83.4619 67.1193 84.0213 65.6277 85.1399 64.5091C86.2586 63.3904 87.7501 62.8311 89.6145 62.8311C91.4789 62.8311 92.9705 63.3904 94.0891 64.5091C95.2078 65.6277 95.7671 67.1193 95.7671 68.9837C95.7671 70.8481 95.2078 72.3396 94.0891 73.4583C92.9705 74.5769 91.4789 75.1363 89.6145 75.1363C87.7501 75.1363 86.2586 74.5769 85.1399 73.4583C84.0213 72.3396 83.4619 70.8481 83.4619 68.9837Z" fill="#F69D8C"/>
</svg>
