<svg width="458" height="284" viewBox="0 0 458 284" fill="none" xmlns="http://www.w3.org/2000/svg">
<mask id="mask0_574_9322" style="mask-type:alpha" maskUnits="userSpaceOnUse" x="0" y="0" width="458" height="380">
<path d="M457.021 0H0.266602V379.311H457.021V0Z" fill="#EE4D2D"/>
<mask id="mask1_574_9322" style="mask-type:alpha" maskUnits="userSpaceOnUse" x="0" y="0" width="458" height="380">
<path d="M457.021 0H0.266602V379.311H457.021V0Z" fill="#EE4D2D"/>
</mask>
<g mask="url(#mask1_574_9322)">
</g>
</mask>
<g mask="url(#mask0_574_9322)">
<path d="M215.795 96.9771C215.108 101.323 211.022 104.295 206.676 103.607C202.33 102.92 199.359 98.8342 200.046 94.4879L215.788 96.9771H215.795Z" fill="white"/>
<path d="M166.202 213.704C154.497 213.704 145.008 204.215 145.008 192.51C145.008 180.805 154.497 171.316 166.202 171.316C177.908 171.316 187.396 180.805 187.396 192.51C187.396 204.215 177.908 213.704 166.202 213.704Z" fill="#F3C08E"/>
<path d="M214.151 130.303C214.151 141.339 223.101 148.249 234.138 148.249C245.174 148.249 254.124 141.346 254.124 130.303L234.138 128.263L214.151 130.303Z" fill="#E7AD7D"/>
<path d="M264.192 188.913L328.233 257.688C332.495 262.266 338.436 261.517 341.433 256.028L347.658 244.617C350.654 239.122 350.06 230.514 346.34 225.483L298.411 160.693" fill="#F3C08E"/>
<path d="M306.8 166.505L293.988 148.805C286.942 139.066 272.471 138.369 261.841 147.248C251.206 156.128 249.275 170.444 257.547 179.059L272.587 194.725" fill="#F6BFB3"/>
<path d="M355.994 191.522L325.372 232.38C321.62 237.385 323.17 243.687 328.82 246.38L344.099 253.664C349.749 256.357 356.452 253.884 359.003 248.169L387.766 183.689" fill="#F3C08E"/>
<path d="M340.477 261.601C329.777 261.601 321.104 252.927 321.104 242.228C321.104 231.528 329.777 222.855 340.477 222.855C351.176 222.855 359.85 231.528 359.85 242.228C359.85 252.927 351.176 261.601 340.477 261.601Z" fill="#F3C08E"/>
<path d="M339.211 214.356L324.358 229.855" stroke="#D1966C" stroke-width="2.5" stroke-miterlimit="10" stroke-linecap="round"/>
<path d="M190.238 193.711C176.614 193.711 165.57 182.667 165.57 169.043C165.57 155.419 176.614 144.375 190.238 144.375C203.862 144.375 214.906 155.419 214.906 169.043C214.906 182.667 203.862 193.711 190.238 193.711Z" fill="#F6BFB3"/>
<path d="M38.8319 183.598L61.6016 169.915C79.5475 193.279 111.655 196.404 123.569 194.757C146.869 190.056 157.84 169.902 164.924 157.929L206.764 183.773C187.662 219.096 154.644 235.376 124.422 238.456C123.408 238.521 122.401 238.553 121.393 238.573C121.057 238.573 120.728 238.573 120.392 238.573C119.721 238.573 119.049 238.573 118.377 238.547C117.984 238.534 117.583 238.508 117.189 238.489C116.582 238.456 115.975 238.424 115.368 238.379C114.955 238.347 114.535 238.301 114.122 238.263C113.541 238.205 112.953 238.14 112.372 238.069C111.946 238.017 111.526 237.953 111.106 237.895C110.531 237.811 109.963 237.72 109.388 237.623C108.969 237.552 108.542 237.475 108.123 237.391C107.554 237.281 106.98 237.165 106.411 237.036C105.998 236.945 105.585 236.855 105.172 236.758C104.59 236.622 104.009 236.467 103.434 236.319C103.041 236.216 102.647 236.112 102.253 236.002C102.124 235.964 101.994 235.938 101.865 235.899V235.886C76.8417 228.641 52.2057 209.487 38.8319 183.611V183.598Z" fill="#F3C08E"/>
<path d="M186.693 139.796C194.165 135.398 209.637 131.085 214.494 129.793C215.443 129.541 216.018 130.433 216.069 130.93C216.948 140.313 224.994 146.105 234.797 146.105C244.599 146.105 252.652 140.313 253.53 130.93C253.575 130.433 254.305 129.541 255.235 129.793C260.027 131.078 275.428 135.398 282.906 139.803C287.059 142.224 290.946 145.279 294.336 148.346L303.312 316.039H167.23L175.27 148.346C178.654 145.279 182.548 142.218 186.7 139.803L186.693 139.796Z" fill="white"/>
<path d="M294.336 148.34L327.58 192.407C328.652 193.827 328.581 196.088 327.431 197.444L301.911 227.401C300.761 228.751 298.818 228.802 297.603 227.511L281.091 210.023" fill="white"/>
<path d="M175.263 148.34L135.923 186.149C134.644 187.383 134.599 189.436 135.833 190.715L167.301 223.52C168.528 224.798 170.614 224.876 171.931 223.681L194.546 203.185" fill="white"/>
<path d="M172.854 196.766L171.64 222.067" stroke="#D7DADF" stroke-width="2.5" stroke-miterlimit="10" stroke-linecap="round"/>
<path d="M296.577 195.313L297.455 213.704" stroke="#D7DADF" stroke-width="2.5" stroke-miterlimit="10" stroke-linecap="round"/>
<path d="M260.466 133.371C260.466 133.371 258.955 154.003 235.92 154.003C235.92 154.003 213.344 155.172 208.966 134.546" stroke="#D7DADF" stroke-width="2.5" stroke-miterlimit="10" stroke-linecap="round"/>
<path d="M414.911 167.854L415.887 171.503C416.119 172.372 415.603 173.264 414.734 173.496L285.835 207.938C284.966 208.17 284.074 207.654 283.842 206.786L282.867 203.136C282.635 202.268 283.151 201.376 284.019 201.144L412.919 166.702C413.787 166.47 414.679 166.985 414.911 167.854Z" fill="#C5CAD0"/>
<path d="M327.87 193.324C328.116 195.119 329.749 196.197 331.493 195.732L419.485 172.227C421.235 171.762 422.462 169.908 422.217 168.119L412.763 99.384C412.517 97.5887 410.884 96.5103 409.14 96.9753L321.148 120.481C319.398 120.946 318.171 122.799 318.416 124.588L327.87 193.324Z" fill="#D7DADF"/>
<path d="M372.222 153.564C368.07 153.564 364.705 150.199 364.705 146.047C364.705 141.896 368.07 138.53 372.222 138.53C376.373 138.53 379.738 141.896 379.738 146.047C379.738 150.199 376.373 153.564 372.222 153.564Z" fill="white"/>
<path d="M396.902 184.141L403.889 177.089C403.889 177.089 407.344 173.796 406.886 170.703C406.427 167.609 404.122 158.872 404.122 158.872C404.122 158.872 402.533 151.665 399.795 152.092C397.064 152.518 395.766 154.997 396.366 157.342C396.967 159.679 397.858 163.231 397.858 163.231" fill="#F3C08E"/>
<path d="M379.926 185.872L382.502 178.639C382.502 178.639 384.188 176.03 382.754 172.072C381.321 168.113 377.575 159.369 377.575 159.369C377.575 159.369 375.87 155.398 373.978 157.058C372.086 158.711 373.126 162.495 373.694 164.923C374.262 167.358 375.134 171.833 374.882 173.55C374.63 175.268 373.106 178.329 373.106 178.329C373.106 178.329 370.117 180.17 367.075 182.346C364.033 184.522 360.869 184.406 357.673 189.23" fill="#F3C08E"/>
<path d="M389.646 183.973L392.429 174.971C392.429 174.971 393.242 172.582 391.234 169.424C388.69 164.477 382.49 154.804 382.49 154.804C382.49 154.804 379.798 151.342 377.718 153.474C376.698 154.52 376.317 155.747 376.452 157.167L381.276 172.517L380.346 179.052L378.5 182.753" fill="#F3C08E"/>
<path d="M391.937 170.741L386.099 157.103C383.057 152.079 385.912 149.25 387.991 149.315C390.07 149.379 393.39 155.391 393.39 155.391C393.39 155.391 399.021 165.44 401.32 169.024C403.619 172.608 400.951 176.25 400.951 176.25C400.951 176.25 397.606 183.424 394.765 187.615C392.079 190.495 380.235 202.875 364.717 205.994L354.385 201.041L356.232 193.589C356.232 193.589 356.891 187.719 367.068 182.346" fill="#F3C08E"/>
<path d="M397.761 182.578C399.537 179.298 400.957 176.25 400.957 176.25C400.957 176.25 403.624 172.608 401.325 169.024C399.956 166.893 397.412 162.469 395.572 159.24" stroke="#D1966C" stroke-width="2.5" stroke-miterlimit="10" stroke-linecap="round"/>
<path d="M389.646 183.973L392.429 174.971C392.429 174.971 393.242 172.582 391.234 169.424" stroke="#D1966C" stroke-width="2.5" stroke-miterlimit="10" stroke-linecap="round"/>
<path d="M374.887 173.55C374.635 175.268 373.111 178.329 373.111 178.329C373.111 178.329 370.121 180.17 367.079 182.346C364.038 184.522 360.874 184.406 357.677 189.23" stroke="#D1966C" stroke-width="2.5" stroke-miterlimit="10" stroke-linecap="round"/>
<path d="M379.926 185.872L382.502 178.639C382.502 178.639 384.188 176.03 382.754 172.072C381.321 168.113 377.575 159.369 377.575 159.369" stroke="#D1966C" stroke-width="2.5" stroke-miterlimit="10" stroke-linecap="round"/>
<path d="M16.3064 157.748C17.9402 154.591 24.1719 157.051 24.1719 157.051C24.1719 157.051 24.3979 157.116 24.7272 157.238L30.029 148.275L18.6506 129.16C18.6506 129.16 16.8166 126.216 16.6616 125.518C16.4614 124.621 16.61 123.729 16.9974 122.967C17.133 122.586 17.3461 122.225 17.669 121.915C18.2437 121.359 18.8378 121.082 19.4319 120.991C19.4836 120.978 19.5224 120.953 19.574 120.946C21.1432 120.597 22.6931 121.269 23.5519 122.515L23.5972 122.573L23.623 122.606L24.6756 124.194C26.219 126.3 29.6286 130.956 29.6286 130.956C31.3658 133.493 43.4158 147.804 44.4813 148.682C45.9472 149.896 48.7692 151.601 49.5828 148.708L58.2491 149.967C58.8819 153.635 61.6006 169.934 61.6006 169.934L40.174 184.477C29.0539 178.032 20.0002 170.07 18.0694 168.061C18.0694 168.061 13.2907 162.366 16.3064 157.768V157.748Z" fill="#F3C08E"/>
<path d="M56.3956 140.661C56.3956 140.661 58.307 148.804 58.5137 152.266L49.5827 148.688L49.6279 141.624L56.402 140.661H56.3956Z" fill="#F3C08E"/>
<path d="M18.922 156.631C21.0982 155.798 24.1721 157.045 24.1721 157.045C24.1721 157.045 29.1122 158.691 28.1823 161.203C27.0457 164.187 21.8473 162.101 21.8473 162.101" fill="#F6BFB3"/>
<path d="M36.8928 157.658C34.81 157.658 33.1215 155.969 33.1215 153.887C33.1215 151.804 34.81 150.115 36.8928 150.115C38.9756 150.115 40.6641 151.804 40.6641 153.887C40.6641 155.969 38.9756 157.658 36.8928 157.658Z" fill="#F3C08E"/>
<path d="M34.1799 156.618L27.7029 151.388C27.7029 151.388 24.8098 146.854 28.6521 144.794C30.4215 143.845 32.3911 144.975 32.3911 144.975C33.321 145.724 39.3848 151.071 39.3848 151.071" fill="#F3C08E"/>
<path d="M30.2096 152.272C28.0126 152.272 26.2316 150.491 26.2316 148.294C26.2316 146.097 28.0126 144.316 30.2096 144.316C32.4065 144.316 34.1875 146.097 34.1875 148.294C34.1875 150.491 32.4065 152.272 30.2096 152.272Z" fill="#F3C08E"/>
<path d="M53.0505 144.833C51.1567 144.833 49.6214 143.298 49.6214 141.404C49.6214 139.51 51.1567 137.975 53.0505 137.975C54.9443 137.975 56.4795 139.51 56.4795 141.404C56.4795 143.298 54.9443 144.833 53.0505 144.833Z" fill="#F3C08E"/>
<path d="M33.0439 145.517C34.8843 147.087 39.3853 151.071 39.3853 151.071C39.96 151.581 40.3992 152.266 40.5735 153.073C41.0256 155.107 39.7405 157.122 37.7063 157.574C36.4083 157.865 35.1168 157.438 34.2386 156.56L27.7034 151.387L27.6775 151.349" stroke="#D1966C" stroke-width="2.5" stroke-miterlimit="10" stroke-linecap="round"/>
<path d="M31.7473 163.321C29.6644 163.321 27.976 161.633 27.976 159.55C27.976 157.467 29.6644 155.779 31.7473 155.779C33.8301 155.779 35.5186 157.467 35.5186 159.55C35.5186 161.633 33.8301 163.321 31.7473 163.321Z" fill="#F3C08E"/>
<path d="M29.0344 162.282L22.5573 157.051C22.5573 157.051 19.6643 152.518 23.5066 150.458C25.276 149.508 27.2456 150.639 27.2456 150.639C28.1755 151.388 34.2393 156.735 34.2393 156.735" fill="#F3C08E"/>
<path d="M25.0641 157.942C22.8671 157.942 21.0862 156.161 21.0862 153.964C21.0862 151.767 22.8671 149.986 25.0641 149.986C27.261 149.986 29.042 151.767 29.042 153.964C29.042 156.161 27.261 157.942 25.0641 157.942Z" fill="#F3C08E"/>
<path d="M27.8974 151.181C29.7379 152.75 34.2389 156.735 34.2389 156.735C34.8136 157.245 35.2527 157.929 35.427 158.736C35.8791 160.771 34.594 162.785 32.5598 163.237C31.2618 163.528 29.9703 163.102 29.0921 162.224L22.5569 157.051L22.5311 157.012" stroke="#D1966C" stroke-width="2.5" stroke-miterlimit="10" stroke-linecap="round"/>
<path d="M26.3469 169.133C24.264 169.133 22.5756 167.445 22.5756 165.362C22.5756 163.279 24.264 161.591 26.3469 161.591C28.4297 161.591 30.1182 163.279 30.1182 165.362C30.1182 167.445 28.4297 169.133 26.3469 169.133Z" fill="#F3C08E"/>
<path d="M23.634 168.094L17.157 162.863C17.157 162.863 14.2639 158.33 18.1062 156.27C19.8756 155.32 21.8452 156.45 21.8452 156.45C22.7751 157.199 28.8389 162.546 28.8389 162.546" fill="#F3C08E"/>
<path d="M19.6637 163.748C17.4667 163.748 15.6857 161.967 15.6857 159.77C15.6857 157.573 17.4667 155.792 19.6637 155.792C21.8606 155.792 23.6416 157.573 23.6416 159.77C23.6416 161.967 21.8606 163.748 19.6637 163.748Z" fill="#F3C08E"/>
<path d="M22.4989 156.993C24.3394 158.562 28.8404 162.546 28.8404 162.546C29.4151 163.057 29.8543 163.741 30.0286 164.548C30.4806 166.582 29.1956 168.597 27.1614 169.049C25.8634 169.34 24.5719 168.914 23.6936 168.035L20.2775 165.336" stroke="#D1966C" stroke-width="2.5" stroke-miterlimit="10" stroke-linecap="round"/>
<path d="M47.6846 154.429C47.6846 154.429 41.9373 156.883 44.7141 167.609" stroke="#D1966C" stroke-width="2.5" stroke-miterlimit="10" stroke-linecap="round"/>
<path d="M247.332 133.868H223.374L225.621 110.375H247.016L247.332 133.868Z" fill="#E7AD7D"/>
<path d="M205.996 80.5598C200.623 77.3762 194.824 81.8191 195.496 87.9926C196.167 94.1662 201.721 98.622 207.895 97.9504" fill="#F1AB74"/>
<path d="M254.964 95.8129C255.268 102.91 250.618 111.847 244.632 115.67L233.822 122.58C227.836 126.403 218.517 125.764 213.112 121.159L208.747 117.44C203.342 112.829 199.093 103.252 199.312 96.1487L200.249 65.3585C200.462 58.2616 206.454 52.4109 213.558 52.3722L240.196 52.2107C247.299 52.1655 253.356 57.9387 253.66 65.0357L254.971 95.8129H254.964Z" fill="#F3C08E"/>
<path d="M236.651 59.4885C231.743 57.8999 224.891 57.7385 220.339 60.5282C216.232 63.0467 212.841 66.4692 209.561 69.9628C206.248 73.4887 204.86 76.6982 199.183 75.8587C195.038 75.2452 192.099 71.9001 191.04 67.9868C189.788 63.3631 191.738 58.1259 194.702 54.6646C200.217 48.2392 204.873 46.3859 213.126 44.9781C211.873 45.1912 209.645 44.2678 210.116 41.9494C210.762 38.4752 217.116 37.8488 218.95 37.9392C230.045 38.4946 240.048 43.0214 247.312 51.4164" fill="#9D3C17"/>
<path d="M232.073 55.6203C232.621 58.9848 233.797 62.3169 235.954 64.9581C238.11 67.5993 243.096 70.1243 246.757 70.1566C246.873 76.0008 246.273 78.7388 250.005 82.3228C250.496 82.3422 248.372 98.622 248.372 98.622L250.929 105.254C250.929 105.254 259.027 99.3388 261.513 88.3478C267.512 66.2884 255.514 53.9801 246.977 51.3583" fill="#9D3C17"/>
<path d="M220.345 88.3413L217.833 94.1661C217.549 94.8313 217.878 95.1929 218.562 94.9669L221.546 93.9982" stroke="#D1966C" stroke-width="2.5" stroke-miterlimit="10" stroke-linecap="round"/>
<path d="M210.587 92.6551C209.124 92.6551 207.939 90.7122 207.939 88.3155C207.939 85.9188 209.124 83.976 210.587 83.976C212.049 83.976 213.234 85.9188 213.234 88.3155C213.234 90.7122 212.049 92.6551 210.587 92.6551Z" fill="#320F11"/>
<path d="M233.265 92.6551C231.803 92.6551 230.618 90.7122 230.618 88.3155C230.618 85.9188 231.803 83.976 233.265 83.976C234.728 83.976 235.913 85.9188 235.913 88.3155C235.913 90.7122 234.728 92.6551 233.265 92.6551Z" fill="#320F11"/>
<path d="M206.641 79.5589C206.641 79.5589 210.483 75.8328 214.784 79.8237" stroke="#320F11" stroke-width="3" stroke-miterlimit="10" stroke-linecap="round"/>
<path d="M229.199 79.5589C229.199 79.5589 233.041 75.8328 237.342 79.8237" stroke="#320F11" stroke-width="3" stroke-miterlimit="10" stroke-linecap="round"/>
<path d="M248.301 81.1668C253.674 77.9831 259.473 82.426 258.801 88.5996C258.13 94.7731 252.576 99.2289 246.402 98.5573" fill="#FCBE86"/>
<path d="M214.288 101.321C214.288 105.319 217.53 108.567 221.534 108.567C225.538 108.567 228.779 105.325 228.779 101.321H214.295H214.288Z" fill="white"/>
</g>
</svg>
